<svg xmlns="http://www.w3.org/2000/svg" viewBox="0 0 231.37 123.87"><defs><style>.cls-1{fill:#fff;}</style></defs><g id="Layer_2" data-name="Layer 2"><g id="Layer_1-2" data-name="Layer 1"><path class="cls-1" d="M57.75,118a5.92,5.92,0,1,1,5.9,5.7A5.81,5.81,0,0,1,57.75,118Zm2.36,0a3.54,3.54,0,1,0,3.54-3.53A3.6,3.6,0,0,0,60.11,118Z"/><path class="cls-1" d="M75.56,123.52v-11h4.88a3.82,3.82,0,0,1,1.72,7.3c1,1.18,2,2.5,2.84,3.67H82.16c-.9-1.12-1.72-2.22-2.62-3.42H77.91v3.42Zm4.88-5.47a1.61,1.61,0,0,0,1.6-1.69,1.57,1.57,0,0,0-1.6-1.75H77.91v3.44Z"/><path class="cls-1" d="M101.61,118.3c0,.2,0,.41,0,.63a5.51,5.51,0,0,1-5.74,4.8,5.69,5.69,0,1,1,0-11.38,6,6,0,0,1,5,2.65l-2,1.18a3.76,3.76,0,0,0-2.93-1.66,3.54,3.54,0,1,0,0,7.07A3.41,3.41,0,0,0,99,119.5h-4.1v-2.09h6.64C101.59,117.71,101.61,118.06,101.61,118.3Z"/><path class="cls-1" d="M111.83,112.21l6,11.31h-2.59l-.87-1.68h-5.12l-.85,1.68h-2.61Zm1.41,7.61L111.83,117l-1.39,2.87Z"/><path class="cls-1" d="M125.51,123.52h-2.35V112.21l7.56,6.69v-6.33h2.37v11.3l-7.58-6.59Z"/><path class="cls-1" d="M139.9,123.52v-11h2.37v11Z"/><path class="cls-1" d="M154.29,123.73a5.68,5.68,0,1,1,0-11.36,6.09,6.09,0,0,1,5.21,3l-2.21.86a3.83,3.83,0,0,0-3-1.71,3.54,3.54,0,0,0,0,7.07,3.83,3.83,0,0,0,3-1.74l2.21.85A6,6,0,0,1,154.29,123.73Z"/><path class="cls-1" d="M169.23,121.6c1.3,0,2-.6,2-1.21,0-.87-1.17-1.1-2.44-1.32s-4.36-.74-4.36-3.37,2.42-3.32,4.36-3.32a6.72,6.72,0,0,1,4.34,1.48l-1.32,1.8a5.52,5.52,0,0,0-3.11-1.13c-.69,0-1.89.21-1.89,1.08s1.18,1,2.17,1.17c1.79.38,4.63.61,4.63,3.55,0,2.28-1.77,3.4-4.37,3.4a7.37,7.37,0,0,1-5-1.71l1.27-1.81A6.66,6.66,0,0,0,169.23,121.6Z"/><path class="cls-1" d="M5,89.06h11v4.33H5v9.37H0V79.63H17.53V84H5Z"/><path class="cls-1" d="M29.66,102.76V79.63h5v23.13Z"/><path class="cls-1" d="M48.2,102.76V79.63H58.48c5,0,8.36,3.29,8.36,8A7.79,7.79,0,0,1,62.12,95c2,2.5,4.12,5.28,6,7.75h-6c-1.9-2.37-3.64-4.68-5.53-7.22H53.17v7.22ZM58.48,91.21a3.38,3.38,0,0,0,3.39-3.54c0-1.21-.44-3.71-3.39-3.71H53.17v7.25Z"/><path class="cls-1" d="M88.52,98.71c2.75,0,4.27-1.27,4.27-2.56,0-1.84-2.47-2.31-5.16-2.79-2.91-.47-9.17-1.55-9.17-7.09s5.09-7,9.17-7a14.14,14.14,0,0,1,9.15,3.1L94,86.18a11.56,11.56,0,0,0-6.55-2.38c-1.45,0-4,.45-4,2.28,0,1.65,2.5,2,4.58,2.47,3.77.79,9.75,1.27,9.75,7.47,0,4.81-3.73,7.18-9.21,7.18a15.5,15.5,0,0,1-10.44-3.6l2.66-3.83A14.09,14.09,0,0,0,88.52,98.71Z"/><path class="cls-1" d="M118.14,84v18.8h-5V84h-6.74V79.63h18.48V84Z"/><path class="cls-1" d="M160.49,90.67a5.92,5.92,0,0,1,3.86,5.38c0,5.16-3.93,6.71-8.1,6.71h-10V79.63h9.61c4.5,0,7.54,1.67,7.54,6.42A5,5,0,0,1,160.49,90.67ZM156,88.8A2.42,2.42,0,0,0,156,84h-4.71V88.8Zm3.39,7c0-1.39-1-2.63-3.2-2.63h-4.87v5.25h5C158.3,98.42,159.35,97.16,159.35,95.8Z"/><path class="cls-1" d="M175.9,93.39V79.66h5V93.39a5.35,5.35,0,1,0,10.69,0V79.66h5V93.39c0,5.92-4.05,9.78-10.31,9.78S175.9,99.31,175.9,93.39Z"/><path class="cls-1" d="M209.76,79.63h9.56a12.43,12.43,0,0,1,8.45,2.91,11,11,0,0,1,3.6,8.64,11.54,11.54,0,0,1-3.6,8.7,12.57,12.57,0,0,1-8.45,2.88h-9.56Zm9.56,18.79c3.16,0,7-1.13,7-7.21s-3.86-7.21-7-7.21h-4.56V98.42Z"/><path class="cls-1" d="M114.13,70.69a35.35,35.35,0,1,1,35.34-35.35A35.38,35.38,0,0,1,114.13,70.69Zm0-67a31.69,31.69,0,1,0,31.68,31.68A31.72,31.72,0,0,0,114.13,3.66Z"/><path class="cls-1" d="M129.94,30.76c-3.08-7.23-8.25-12.86-14.07-18a2.8,2.8,0,0,0-4,.1c-3.56,3.41-8,7.94-10.74,12A29.57,29.57,0,0,0,96.71,36c-1.42,7.89,2,13.67,8,18.29,1.82,1.4,3.31,1.6,4.12.61s.33-2.38-1.65-3.84c-3.42-2.52-5.88-5.56-6.59-9.31H107a.5.5,0,0,0,.5-.5V38.35a.5.5,0,0,0-.5-.5h-6.49c0-.39.11-.78.19-1.19a24.81,24.81,0,0,1,1.12-3.82h7.88a.5.5,0,0,0,.5-.5V29.49a.5.5,0,0,0-.5-.5h-6.07c2.64-4.65,6.49-8.53,10.5-12.34,5.12,4.72,9.7,9.62,12.17,16a20.92,20.92,0,0,1,1.35,8.1,10.53,10.53,0,0,1-1.89,5.63,7.06,7.06,0,0,0-.53-1.5,10,10,0,0,0-4.79-4.3,7.19,7.19,0,0,0,1.9-6.79c-1.13-4.75-6.12-5.21-8.6-4.79h-1.18a.5.5,0,0,0-.5.5V58.16a.5.5,0,0,0,.5.5h2.85a.47.47,0,0,0,.17,0h0a53.34,53.34,0,0,0,7.62-4.24C131.65,48.46,134,40.22,129.94,30.76Zm-10.45,3.69c.82,3.45-2.54,5.17-2.68,5.24l-.9.43V31.81C117.27,31.93,119,32.47,119.49,34.45Zm-3.58,19.88V42.13l1.19.29c1.17.29,4.43,1.52,5.51,3.73a4.37,4.37,0,0,1-.09,3.7c-.42.36-.86.7-1.31,1C119.74,52,117.43,53.38,115.91,54.33Z"/></g></g></svg>